<?xml version='1.0' encoding='ASCII' standalone='yes'?>
<svg xmlns="http://www.w3.org/2000/svg" xmlns:xlink="http://www.w3.org/1999/xlink" xmlns:inkscape="http://www.inkscape.org/namespaces/inkscape" version="1.1" width="612" height="792" viewBox="0 0 612 792">
<defs>
<clipPath id="clip_1">
<path transform="matrix(.75,0,0,.75,75.33,255.24)" d="M-2.36-242.24H482.28V242.24H-2.36Z" clip-rule="evenodd"/>
</clipPath>
</defs>
<path transform="matrix(.75,0,0,.75,0,0)" d="M0 0H816V1056H0Z" fill="#ffffff"/>
<path transform="matrix(.75,0,0,.75,75.33,255.24)" d="M0 0C0-132.45 107.49-239.91 239.96-239.91 372.44-239.91 479.93-132.45 479.93 0 479.93 132.44 372.44 239.9 239.96 239.9 107.49 239.9 0 132.44 0 0Z" fill="#ffffff" fill-rule="evenodd"/>
<path transform="matrix(.75,0,0,.75,178.89,201.4275)" d="M0 0C0-13.77 11.22-24.98 24.99-24.98 38.77-24.98 49.98-13.77 49.98 0 49.98 13.77 38.77 24.98 24.99 24.98 11.22 24.98 0 13.77 0 0ZM153.78 0C153.78-13.77 165-24.98 178.77-24.98 192.55-24.98 203.76-13.77 203.76 0 203.76 13.77 192.55 24.98 178.77 24.98 165 24.98 153.78 13.77 153.78 0Z" fill="#cbcbcb" fill-rule="evenodd"/>
<path transform="matrix(.75,0,0,.75,178.89,201.4275)" stroke-width="4.806" stroke-linecap="butt" stroke-linejoin="round" fill="none" stroke="#ff0000" d="M0 0C0-13.77 11.22-24.98 24.99-24.98 38.77-24.98 49.98-13.77 49.98 0 49.98 13.77 38.77 24.98 24.99 24.98 11.22 24.98 0 13.77 0 0M153.78 0C153.78-13.77 165-24.98 178.77-24.98 192.55-24.98 203.76-13.77 203.76 0 203.76 13.77 192.55 24.98 178.77 24.98 165 24.98 153.78 13.77 153.78 0"/>
<path transform="matrix(.75,0,0,.75,0,0)" stroke-width="4.806" stroke-linecap="butt" stroke-linejoin="round" fill="none" stroke="#ff0000" d="M210.33 444.9C296.99 504.47 383.65 504.47 470.16 444.9"/>
<g clip-path="url(#clip_1)">
<path transform="matrix(.75,0,0,.75,75.33,255.24)" stroke-width="4.806" stroke-linecap="butt" stroke-linejoin="round" fill="none" stroke="#ff0000" d="M0 0C0-132.45 107.49-239.91 239.96-239.91 372.44-239.91 479.93-132.45 479.93 0 479.93 132.44 372.44 239.9 239.96 239.9 107.49 239.9 0 132.44 0 0Z"/>
</g>
<path transform="matrix(.75,0,0,.75,180.5775,201.3075)" d="M0 0C0-12.65 10.09-22.74 22.74-22.74 28.83-22.74 34.6-20.34 38.92-16.17 43.25-11.85 45.65-6.09 45.65 0 45.65 12.65 35.4 22.9 22.74 22.9 10.09 22.9 0 12.65 0 0Z" fill="#ffffff" fill-rule="evenodd"/>
<path transform="matrix(.75,0,0,.75,296.1525,201.3075)" d="M0 0C0-12.65 10.25-22.74 22.74-22.74 28.83-22.74 34.6-20.34 38.92-16.17 43.25-11.85 45.65-6.09 45.65 0 45.65 12.65 35.4 22.9 22.74 22.9 10.25 22.9 0 12.65 0 0Z" fill="#ffffff" fill-rule="evenodd"/>
</svg>
